<svg width="89" height="84" viewBox="0 0 89 84" fill="none" xmlns="http://www.w3.org/2000/svg">
<path d="M65.2161 12.8169L40.9336 6.31039C36.8563 5.21788 32.5068 6.3846 29.5254 9.36718L11.7469 27.1422C8.76547 30.1247 7.59939 34.4766 8.69009 38.5503L15.1992 62.8332C16.2899 66.9069 19.4733 70.092 23.5506 71.1845L47.8331 77.691C51.9104 78.7835 56.2599 77.6168 59.2413 74.6342L77.0147 56.8578C79.9961 53.8753 81.1622 49.5234 80.0715 45.4497L73.5675 21.1682C72.4768 17.0945 69.2934 13.9094 65.2161 12.8169Z" fill="#17E885"/>
<path d="M38.8096 56.6104C37.7368 56.6104 36.6541 56.2148 35.8093 55.4221L28.5669 48.664C26.7886 47.0097 26.6929 44.2206 28.3557 42.4423C30.01 40.6655 32.7991 40.5684 34.5774 42.2312L38.7575 46.1297L54.8249 30.4833C56.5679 28.7853 59.3472 28.829 61.0466 30.572C62.746 32.315 62.7009 35.0957 60.9579 36.7937L41.8803 55.3616C41.0271 56.1979 39.9177 56.6104 38.8096 56.6104Z" fill="white"/>
</svg>
